 <svg
      xmlns="http://www.w3.org/2000/svg"
      width="150"
      height="30"
      viewBox="0 0 150 30"
    >
      <path
        d="M-.001 0H13.33c2.222 0 3.928.513 5.118 1.538 1.189 1.026 1.784 2.295 1.784 3.809 0 1.269-.425 2.358-1.273 3.267-.566.605-1.394 1.083-2.484 1.435 1.656.37 2.874 1.008 3.655 1.912.78.903 1.17 2.038 1.17 3.405 0 1.114-.277 2.115-.832 3.003a5.957 5.957 0 01-2.28 2.11c-.597.322-1.5.556-2.704.703-1.604.195-2.667.293-3.191.293H-.001V0zm70.04 0h7.138v21.475h-7.138V0zm-21.76 0h7.123v16.187h11.115v5.288H48.28V0zM25.013 0h19.086v4.585H32.15v3.413h11.084v4.38H32.15v4.234h12.294v4.863H25.012V0zM82.27 0h19.086v4.585h-11.95v3.413h11.085v4.38H89.408v4.234h12.294v4.863H82.271V0zm48.296 0h19.085v4.585h-11.948v3.413h11.084v4.38h-11.084v4.234h12.294v4.863h-19.431V0zm-27.292 0h7.445l5.187 15.454L121.028 0h7.228l-8.558 21.475h-7.719L103.275 0zM7.184 16.86h3.632c1.226 0 2.09-.202 2.594-.607.503-.406.754-.95.754-1.634 0-.634-.248-1.145-.746-1.53-.498-.386-1.371-.58-2.618-.58H7.184v4.352zm0-8.437h3.097c1.11 0 1.884-.178 2.319-.535.435-.356.653-.871.653-1.545 0-.625-.218-1.113-.653-1.465-.435-.351-1.192-.527-2.272-.527H7.184v4.072z"
      ></path>
      <path
        d="M108.229 25.4v-.008c.404-.315.892-.868 1.464-1.66l-.34-.01c-.227 0-.396.014-.507.043a1.73 1.73 0 00-.13.035.374.374 0 01-.083.019c-.016 0-.024-.011-.024-.033 0-.118.079-.295.237-.531.127-.201.247-.35.36-.446a.91.91 0 01.415-.196c.163-.034.393-.051.689-.051h.248c.204-.34.388-.581.553-.723a.849.849 0 01.565-.212c.212 0 .317.045.317.134 0 .043-.082.16-.248.35-.165.189-.29.349-.374.478l.588.064c-.219.38-.494.768-.825 1.166l-.766-.054c-.208.31-.382.59-.522.835s-.248.47-.323.674a1.684 1.684 0 00-.112.58c0 .247.105.37.317.37.146 0 .337-.072.573-.217.237-.145.553-.368.949-.668v.359c-1.038 1.05-1.805 1.574-2.3 1.574a.52.52 0 01-.418-.188.72.72 0 01-.159-.483c0-.133.03-.29.089-.473.06-.183.167-.458.32-.827l-.472.395v.002c-.319.312-.583.557-.79.736a4.17 4.17 0 01-.577.427c-.176.106-.334.159-.472.159a.493.493 0 01-.404-.207c-.107-.138-.161-.338-.161-.6 0-.153.042-.328.127-.525a3.51 3.51 0 01.372-.642c.163-.231.346-.461.55-.69-.108.02-.229.044-.363.067l-.773.13a3.94 3.94 0 01-1.037 1.21v-.007a2.804 2.804 0 01-.542.372c-.154.072-.375.1-.663.086-.5.55-.94.827-1.32.827a.956.956 0 01-.588-.2 1.384 1.384 0 01-.424-.541 1.709 1.709 0 01-.145-.531c-.263.217-.52.423-.771.617a5.477 5.477 0 01-.787.516c-.246.128-.473.193-.68.193-.077 0-.16-.008-.245-.024a2.007 2.007 0 01-.24-.06l-.547-.19a1.893 1.893 0 01-.208.043c-.134 0-.292-.05-.473-.15a9.257 9.257 0 00-.417.888c-.152.364-.28.653-.384.868a2.755 2.755 0 01-.415.618c-.096.089-.163.134-.202.134-.165 0-.248-.136-.248-.408 0-.237.05-.483.153-.74.102-.255.227-.497.375-.727.148-.23.31-.461.487-.695.177-.235.302-.41.375-.524.607-.974 1.08-1.803 1.418-2.487-.815.925-1.448 1.609-1.897 2.053v.004l-.031.027-.078.075v-.011c-.254.21-.503.409-.747.597a5.42 5.42 0 01-.787.516c-.246.128-.472.193-.68.193-.077 0-.158-.008-.245-.024a2.038 2.038 0 01-.24-.06l-.547-.19a1.956 1.956 0 01-.207.043c-.135 0-.292-.05-.473-.15a9.232 9.232 0 00-.418.888c-.152.364-.28.653-.383.868a2.755 2.755 0 01-.415.618c-.096.089-.164.134-.202.134-.165 0-.248-.136-.248-.408 0-.237.05-.483.153-.74.102-.255.227-.497.375-.727.148-.23.31-.461.487-.695.176-.235.3-.41.374-.524.608-.974 1.08-1.803 1.418-2.487-.808.917-1.436 1.597-1.885 2.04v.017a55.84 55.84 0 01-.997.844 4.183 4.183 0 01-.56.397.908.908 0 01-.45.134c-.321 0-.483-.18-.483-.537 0-.136.048-.32.144-.55.096-.231.252-.565.467-1.002-.557.688-.981 1.176-1.271 1.466-.29.29-.527.435-.712.435a.583.583 0 01-.403-.17 1.11 1.11 0 01-.286-.455 1.854 1.854 0 01-.057-1.002c.028-.115.083-.241.164-.38a3.48 3.48 0 01.32-.447c.132-.161.295-.344.487-.548l.29-.317a.66.66 0 01.232-.174c.075-.031.197-.046.366-.046.123 0 .24.015.35.046.113.03.169.06.169.094 0 .064-.057.18-.171.349a4.065 4.065 0 01-.547.615 7.515 7.515 0 01-.873.71c-.074.213-.11.374-.11.485 0 .154.063.23.19.23.046 0 .123-.036.23-.11.108-.073.29-.214.546-.424.255-.21.485-.395.688-.556.15-.121.324-.303.522-.545.198-.242.358-.423.48-.545.286-.28.48-.461.584-.545a.48.48 0 01.299-.126c.093 0 .155.026.188.08.032.054.049.163.049.328a.602.602 0 01-.023.182.84.84 0 01-.095.18 9.823 9.823 0 01-.291.406l-.52.698c-.107.143-.201.3-.282.47-.08.17-.121.298-.121.384 0 .186.079.279.237.279.13 0 .282-.05.455-.15a8.98 8.98 0 00.674-.454v-.002a21.924 21.924 0 001.393-1.537c.39-.48.698-.861.925-1.144.226-.283.426-.482.599-.6.173-.115.39-.173.652-.173.13 0 .196.046.196.14 0 .075-.053.186-.16.333a3.186 3.186 0 01-.405.45c-.22.2-.434.453-.643.755-.21.303-.447.689-.712 1.158.208-.151.447-.33.718-.535.27-.205.492-.367.663-.483.17-.116.34-.21.507-.277.167-.068.335-.102.504-.102.108 0 .178.018.21.054.033.036.05.106.05.21 0 .272-.071.538-.214.797a3.91 3.91 0 01-.611.808c-.265.28-.591.584-.98.914.135.046.273.069.415.069.446 0 1.044-.317 1.793-.95.492-.503.92-.977 1.283-1.424.39-.48.698-.861.925-1.144.227-.283.427-.482.6-.6.173-.115.39-.173.65-.173.132 0 .197.046.197.14 0 .075-.053.186-.158.333a3.197 3.197 0 01-.407.45c-.22.2-.433.453-.643.755a15.91 15.91 0 00-.712 1.158c.208-.151.447-.33.718-.535.27-.205.492-.367.663-.483.17-.116.34-.21.507-.277.168-.068.336-.102.505-.102.107 0 .177.018.21.054.033.036.049.106.049.21 0 .272-.071.538-.213.797-.142.26-.346.529-.611.808-.265.28-.592.584-.98.914.134.046.273.069.415.069.428 0 .997-.292 1.705-.877.027-.19.106-.395.235-.616.163-.28.374-.54.634-.781.259-.242.537-.437.833-.586.296-.148.57-.223.824-.223.181 0 .323.026.427.078.103.052.155.125.155.218 0 .07-.044.154-.132.247.146.029.246.076.299.142.054.066.081.187.081.363 0 .172-.043.388-.13.65a3.114 3.114 0 01-.354.735l.104.097h.086c.066 0 .13-.015.193-.045.064-.031.12-.063.17-.097l.324-.225c.176-.198.312-.37.408-.514a.637.637 0 01-.268-.145c-.055-.057-.083-.143-.083-.258 0-.128.057-.291.173-.488.115-.197.257-.382.426-.554.169-.171.323-.282.462-.333a.362.362 0 01.155-.037c.077 0 .115.034.115.102 0 .06-.059.184-.178.37.791-.114 1.291-.171 1.499-.171.08 0 .136.007.167.02.065.033.119.109.161.227.042.118.064.236.064.354 0 .075-.036.157-.107.245a5.255 5.255 0 01-.366.384 3.186 3.186 0 00-.513.666c-.139.24-.208.42-.208.542 0 .168.112.253.335.253.223 0 .603-.202 1.141-.605zm-22.868.089a1.422 1.422 0 00-.432-.446 2.598 2.598 0 00-.65-.32 4.366 4.366 0 00-.751-.18 6.411 6.411 0 01-2.174-.703.55.55 0 01-.184-.183.471.471 0 01-.098-.268c0-.315.057-.631.17-.948.113-.317.258-.565.435-.744.285-.297.797-.557 1.537-.78.739-.221 1.572-.332 2.498-.332.554 0 .98.04 1.283.118.302.079.453.2.453.366 0 .268-.04.476-.12.623-.077.146-.162.244-.252.292-.09.049-.25.114-.476.196a4.84 4.84 0 00-1.089.495c-.127.078-.206.118-.237.118-.038 0-.057-.015-.057-.043 0-.061.068-.153.204-.277.137-.123.305-.232.505-.325.21-.104.317-.17.317-.2 0-.045-.117-.068-.352-.068-.711 0-1.368.059-1.971.177-.604.118-1.08.274-1.427.467-.348.193-.522.39-.522.59 0 .126.072.215.216.267.145.052.463.139.954.26.492.122.932.262 1.32.419.558.222.97.453 1.24.693.269.24.403.509.403.806 0 .204-.052.409-.158.615-.106.206-.26.395-.464.566a2.7 2.7 0 01-.703.425 6.18 6.18 0 01-.856.252 9.744 9.744 0 01-1.12.185c-.4.045-.784.068-1.15.068-.671 0-1.212-.06-1.622-.178-.41-.118-.613-.297-.613-.537 0-.107.069-.275.207-.502.138-.227.302-.38.49-.46.165-.06.325-.095.479-.104.153-.01.23.008.23.05 0 .012-.006.023-.017.033a.146.146 0 01-.041.027l-.348.137c-.03.016-.044.039-.044.067 0 .076.398.113 1.194.113.69 0 1.258-.023 1.7-.07.442-.046.832-.13 1.17-.252.339-.122.646-.29.923-.505zm35.158 0a1.422 1.422 0 00-.432-.446 2.581 2.581 0 00-.649-.32 4.366 4.366 0 00-.752-.18 6.406 6.406 0 01-2.173-.703.552.552 0 01-.185-.183.471.471 0 01-.098-.268c0-.315.057-.631.17-.948.114-.317.259-.565.436-.744.284-.297.796-.557 1.536-.78.74-.221 1.573-.332 2.499-.332.553 0 .981.04 1.282.118.302.079.453.2.453.366 0 .268-.039.476-.118.623-.079.146-.164.244-.254.292-.09.049-.249.114-.475.196a4.967 4.967 0 00-1.09.495c-.127.078-.206.118-.236.118-.039 0-.058-.015-.058-.043 0-.061.068-.153.205-.277.136-.123.304-.232.504-.325.211-.104.317-.17.317-.2 0-.045-.117-.068-.352-.068-.711 0-1.368.059-1.971.177s-1.079.274-1.427.467c-.348.193-.521.39-.521.59 0 .126.072.215.216.267.144.052.462.139.954.26.492.122.932.262 1.32.419.557.222.97.453 1.239.693.269.24.404.509.404.806 0 .204-.053.409-.159.615-.105.206-.26.395-.464.566a2.7 2.7 0 01-.703.425 6.18 6.18 0 01-.856.252 9.762 9.762 0 01-1.118.185c-.402.045-.785.068-1.151.068-.672 0-1.213-.06-1.622-.178-.41-.118-.614-.297-.614-.537 0-.107.069-.275.207-.502.139-.227.302-.38.49-.46a1.67 1.67 0 01.479-.104c.154-.01.23.008.23.05 0 .012-.005.023-.017.033a.14.14 0 01-.04.027l-.349.137c-.029.016-.043.039-.043.067 0 .076.397.113 1.193.113.692 0 1.259-.023 1.701-.07.442-.046.832-.13 1.17-.252.338-.122.645-.29.922-.505zm21.963-.135c.982-.965 1.659-1.642 2.029-2.03.085-.44.289-.66.611-.66.081 0 .168.02.26.064l.034.102a.578.578 0 00-.023.183c0 .068.028.194.084.379.056.184.099.339.13.464.03.125.046.267.046.424 0 .237-.058.463-.173.68a2.324 2.324 0 01-.502.623 5.407 5.407 0 01-.847.61c.138.02.248.032.328.032.158 0 .328-.037.511-.11a3.3 3.3 0 00.559-.296c.17-.11.366-.251.588-.421.095-.408.371-.875.827-1.402.173-.201.312-.338.418-.411a.613.613 0 01.36-.11c.116 0 .225.019.329.059.104.039.155.086.155.14 0 .179-.128.44-.386.786a4.404 4.404 0 01-.893.9l-.104.45a.77.77 0 00-.023.195c0 .193.086.29.259.29.166 0 .567-.301 1.205-.903.004-.232.097-.501.28-.805.182-.305.384-.572.605-.801.221-.23.385-.343.493-.343.169 0 .253.103.253.31 0 .126-.032.279-.098.46a3.312 3.312 0 01-.288.586 5.382 5.382 0 01-.467.647c.096.16.194.242.294.242a.59.59 0 00.28-.084c.102-.055.23-.14.383-.255v.36a3.169 3.169 0 01-.51.322 1.147 1.147 0 01-.481.086c-.077 0-.215-.048-.415-.145-.392.387-.711.676-.957.868-.246.19-.446.287-.6.287-.265 0-.491-.148-.677-.443a1.788 1.788 0 01-.278-.884 8.077 8.077 0 01-1.206.916c-.389.23-.723.347-1.004.347-.361 0-.695-.144-1.003-.43-.18-.172-.293-.337-.337-.494a2.11 2.11 0 01-.062-.441c-.427.477-.828.843-1.203 1.099-.381.259-.767.389-1.159.389-.342 0-.613-.123-.813-.37-.199-.247-.299-.586-.299-1.016v-.017c-.38.346-.692.616-.937.812a4.41 4.41 0 01-.726.484 1.456 1.456 0 01-.66.172.862.862 0 01-.583-.234 1.58 1.58 0 01-.415-.612 2.152 2.152 0 01-.135-.54c-.332.387-.645.683-.937.889-.323.227-.598.34-.824.34-.315 0-.55-.153-.704-.461a2.203 2.203 0 01-.227-.884 2.98 2.98 0 01-.456.282 1.147 1.147 0 01-.481.086c-.077 0-.215-.048-.415-.145-.392.387-.711.676-.957.868-.246.19-.446.287-.6.287-.265 0-.49-.148-.677-.443a1.785 1.785 0 01-.277-.876c-.269.26-.494.469-.677.626-.207.179-.4.322-.576.427-.177.106-.335.159-.473.159a.495.495 0 01-.404-.207c-.107-.138-.161-.338-.161-.6 0-.153.042-.328.127-.525a3.51 3.51 0 01.372-.642c.163-.231.346-.461.55-.69-.107.02-.229.044-.363.067l-.772.13a3.958 3.958 0 01-1.038 1.21v-.022c-.413.456-.801.808-1.165 1.056-.38.259-.766.389-1.158.389-.342 0-.613-.123-.813-.37-.2-.247-.3-.586-.3-1.016 0-.375.094-.717.283-1.023.188-.306.495-.63.922-.97.292-.232.582-.407.87-.526.289-.118.546-.177.773-.177.181 0 .324.039.429.116.106.077.159.192.159.346 0 .226-.09.45-.271.674-.181.224-.456.446-.827.666a8.74 8.74 0 01-1.369.637v.134c0 .21.055.376.167.494a.573.573 0 00.438.177c.188 0 .383-.041.585-.123.202-.083.403-.192.602-.328.2-.136.444-.32.733-.548.179-.201.317-.375.415-.521a.63.63 0 01-.268-.145c-.056-.057-.084-.143-.084-.258 0-.128.058-.291.173-.488.115-.197.257-.382.426-.554.17-.171.323-.282.462-.333a.362.362 0 01.155-.037c.077 0 .116.034.116.102 0 .06-.06.184-.179.37.792-.114 1.291-.171 1.499-.171.08 0 .136.007.167.02.065.033.119.109.161.227.043.118.064.236.064.354 0 .075-.036.157-.107.245a5.255 5.255 0 01-.366.384 3.186 3.186 0 00-.513.666c-.138.24-.208.42-.208.542 0 .168.112.253.335.253.224 0 .605-.203 1.145-.608.095-.408.371-.875.826-1.401.173-.201.312-.338.418-.411a.613.613 0 01.36-.11c.116 0 .225.019.329.059.104.039.156.086.156.14 0 .179-.129.44-.387.786a4.404 4.404 0 01-.893.9l-.104.45a.77.77 0 00-.023.195c0 .193.087.29.26.29.165 0 .566-.301 1.204-.903.004-.232.097-.501.28-.805.182-.305.384-.572.605-.801.221-.23.385-.343.493-.343.169 0 .254.103.254.31 0 .126-.033.279-.098.46a3.393 3.393 0 01-.289.586 5.368 5.368 0 01-.466.647c.096.16.194.242.294.242a.59.59 0 00.279-.084c.093-.05.207-.125.342-.224a1.98 1.98 0 01.03-.157c.031-.127.067-.232.109-.314.043-.082.122-.211.237-.387.546-.791 1.045-1.187 1.499-1.187.234 0 .351.084.351.253 0 .114-.076.293-.227.537-.152.243-.288.417-.407.52-.334.3-.552.51-.654.629a.6.6 0 00-.153.403.4.4 0 00.156.322.61.61 0 00.403.129c.181 0 .38-.062.597-.185a6.78 6.78 0 00.733-.507c.02-.177.075-.338.163-.484.116-.19.338-.435.669-.736a6.519 6.519 0 011.092-.83c.337-.195.601-.293.793-.293.138 0 .256.045.352.135a.441.441 0 01.144.338c0 .115-.064.278-.19.489a2.756 2.756 0 01-.427.55c-.158.156-.283.234-.375.234-.1 0-.15-.05-.15-.15l.012-.156c0-.043-.016-.067-.049-.073-.033-.005-.072.008-.118.04-.385.25-.648.428-.79.53a1.658 1.658 0 00-.337.309.515.515 0 00-.124.327c0 .21.073.383.219.516a.819.819 0 00.571.199c.242 0 .533-.087.873-.261.333-.17.725-.417 1.175-.741.045-.213.125-.414.24-.602.188-.306.496-.63.922-.97.293-.232.583-.407.871-.526.288-.118.546-.177.772-.177.181 0 .324.039.43.116.105.077.158.192.158.346 0 .226-.09.45-.271.674-.18.224-.456.446-.827.666a8.74 8.74 0 01-1.369.637v.134c0 .21.056.376.167.494a.576.576 0 00.438.177c.189 0 .384-.041.585-.123.202-.083.403-.192.603-.328.198-.135.44-.316.726-.543zm-38.819-1.428c-.319.179-.591.34-.818.486a3.965 3.965 0 00-.577.44 1.197 1.197 0 00-.317.449 8.665 8.665 0 00-.144.65c0 .236.177.354.531.354.165 0 .442-.132.83-.397a1.321 1.321 0 01-.098-.483c0-.226.05-.456.15-.691.099-.234.247-.504.443-.808zm-5.038 2.138c.38-.373.664-.69.85-.951.187-.261.28-.462.28-.602 0-.132-.071-.198-.213-.198-.192 0-.462.147-.81.443-.348.295-.706.694-1.075 1.195.284-.03.474-.04.57-.03.097.009.229.057.398.143zm-4.79 0c.38-.373.664-.69.85-.951.186-.261.28-.462.28-.602 0-.132-.071-.198-.214-.198-.192 0-.462.147-.81.443-.347.295-.706.694-1.075 1.195a3.65 3.65 0 01.57-.03c.097.009.23.057.399.143zm50.78-1.386l-.104-.784c-.238.25-.747.732-1.527 1.445.23.046.388.109.472.188.085.078.204.23.358.456.261-.1.462-.237.602-.411.141-.173.211-.411.211-.711l-.012-.183zm-4.594.516c.346-.126.642-.282.887-.468a2.45 2.45 0 00.545-.534c.117-.17.176-.295.176-.373 0-.083-.04-.124-.121-.124-.069 0-.182.04-.337.124a2.737 2.737 0 00-.473.322 2.4 2.4 0 00-.429.467c-.127.179-.21.374-.248.586zm-16.862 0a3.38 3.38 0 00.888-.468 2.45 2.45 0 00.545-.534c.117-.17.176-.295.176-.373 0-.083-.041-.124-.121-.124-.07 0-.182.04-.338.124a2.732 2.732 0 00-.472.322c-.16.132-.303.288-.43.467a1.455 1.455 0 00-.248.586zm12.094-2.246a.433.433 0 01-.273-.102.313.313 0 01-.13-.257c0-.158.081-.333.242-.527.161-.193.329-.29.502-.29.115 0 .211.033.288.1.077.066.115.162.115.287 0 .154-.079.324-.236.51-.158.186-.327.279-.508.279z"
      ></path>
  </svg>